# xmcd
#
# Track frame offsets:
#	150
#	13961
#	27915
#	42171
#	56029
#	70197
#	80808
#	95110
#	106342
#	120031
#
# Disc length: 1780 seconds
# Revision: 0
# Processed by: cddbd v1.5.2PL0 Copyright (c) Steve Scherf et al.
# Submitted via: dBpowerAMP V12.0
#
DISCID=8106f20a
DTITLE=George Jone - You've Still Got a Place in My Heart [Epic] (L)
DYEAR=1983
DGENRE=Country
TTITLE0=You've Still Got a Place In My Heart
TTITLE1=From Strangers, To Lovers, To Friends
TTITLE2=The Second Time Around
TTITLE3=Come Sundown
TTITLE4=Even The Bad Times Are Good
TTITLE5=I'm Ragged But I'm Right
TTITLE6=Courtin' In The Rain
TTITLE7=Loveshine
TTITLE8=Your Lying Blue Eyes
TTITLE9=Learning To Do Without Me
EXTD=
EXTT0=
EXTT1=
EXTT2=
EXTT3=
EXTT4=
EXTT5=
EXTT6=
EXTT7=
EXTT8=
EXTT9=
PLAYORDER=
